# xmcd
#
# Track frame offsets:
# 150
# 14804
# 29233
# 50162
# 61311
# 70485
# 103936
# 113523
# 126964
# 141643
# 151056
# 167055
# 182586
# 211860
# 223127
# 285911
# 312020
#
# Disc length: 4444 seconds
#
# Revision: 0
# Processed by: cddbd v1.4PL0 Copyright (c) Steve Scherf et al.
# Submitted via: Audion 3.0.2 (http://www.panic.com/audion/)
#
DISCID=08115a11
DTITLE=Sergei Prokofiev - Ivan The Terrible(CD2)
DYEAR=1900
DGENRE=
TTITLE0=Ivan01
TTITLE1=Ivan02
TTITLE2=Ivan03
TTITLE3=Ivan04
TTITLE4=Ivan05
TTITLE5=Ivan06
TTITLE6=Ivan07
TTITLE7=Ivan08
TTITLE8=Ivan09
TTITLE9=Ivan10
TTITLE10=Alexander01
TTITLE11=Alexander02
TTITLE12=Alexander03
TTITLE13=Alexander04
TTITLE14=Alexander05
TTITLE15=Alexander06
TTITLE16=Alexander07
EXTD=
EXTT0=
EXTT1=
EXTT2=
EXTT3=
EXTT4=
EXTT5=
EXTT6=
EXTT7=
EXTT8=
EXTT9=
EXTT10=
EXTT11=
EXTT12=
EXTT13=
EXTT14=
EXTT15=
EXTT16=
PLAYORDER=
